<svg xmlns="http://www.w3.org/2000/svg" viewBox="0 0 256 256" role="img" aria-label="IoT Dashboard"><rect width="256" height="256" rx="56" fill="#0f172a"/><path fill="#22d3ee" d="M64 118.5 128 68l64 50.5V196a12 12 0 0 1-12 12h-34v-54h-36v54H76a12 12 0 0 1-12-12z"/><path fill="#a78bfa" d="M56 102.5 128 45l72 57.5-13 16.4L128 72.3l-59 46.6z"/><circle cx="128" cy="124" r="11" fill="#ecfeff"/><path stroke="#ecfeff" stroke-linecap="round" stroke-width="10" d="M96 122c-12 13-12 31 0 44m64-44c12 13 12 31 0 44" opacity=".85"/></svg>
